<svg width="244" height="315" viewBox="0 0 244 315" fill="none" xmlns="http://www.w3.org/2000/svg">
<path d="M38.5 5C94.67 5.17 150.83 5.33 207 5.5C207.71 9.21 209.85 17.7 217 25.5C225.57 34.84 235.94 37.32 239.5 38V224C229.74 236.14 217.25 249.67 201.5 263C173.12 287.03 144.86 301.37 123.5 310C101.49 301.94 69.6 286.91 39 258.5C24.57 245.1 13.46 231.55 5 219.5C6.17 158.67 7.33 97.83 8.5 37C12.03 36.3 19.56 34.3 26.5 28C36.12 19.27 38.05 8.25 38.5 5Z" fill="#603813" stroke="black" stroke-width="9" stroke-miterlimit="10"/>
<path d="M49.29 22.01C98.39 22.16 147.49 22.31 196.59 22.45C197.21 25.75 199.08 33.29 205.33 40.22C212.82 48.52 221.88 50.72 225 51.33V216.6C216.47 227.39 205.55 239.41 191.78 251.25C166.97 272.6 142.27 285.34 123.59 293.01C104.35 285.85 76.47 272.49 49.72 247.25C37.11 235.35 27.39 223.3 20 212.6C21.02 158.55 22.04 104.5 23.06 50.44C26.15 49.82 32.73 48.04 38.8 42.44C47.21 34.69 48.9 24.9 49.29 22V22.01Z" fill="#EEB902" stroke="black" stroke-width="5" stroke-linecap="round" stroke-linejoin="round"/>
<path d="M182.636 98H61.9027C56.4336 98 52 102.434 52 107.903V207.515C52 212.984 56.4336 217.418 61.9027 217.418H182.636C188.106 217.418 192.539 212.984 192.539 207.515V107.903C192.539 102.434 188.106 98 182.636 98Z" stroke="black" stroke-width="5" stroke-miterlimit="10"/>
<path d="M52 121.599H192.539" stroke="black" stroke-width="5" stroke-miterlimit="10"/>
<path d="M70.0914 112.655C71.2669 112.655 72.2198 111.695 72.2198 110.51C72.2198 109.326 71.2669 108.366 70.0914 108.366C68.9159 108.366 67.963 109.326 67.963 110.51C67.963 111.695 68.9159 112.655 70.0914 112.655Z" fill="black" stroke="black" stroke-width="5" stroke-linecap="round" stroke-linejoin="round"/>
<path d="M82.155 112.655C83.3305 112.655 84.2834 111.695 84.2834 110.51C84.2834 109.326 83.3305 108.366 82.155 108.366C80.9795 108.366 80.0266 109.326 80.0266 110.51C80.0266 111.695 80.9795 112.655 82.155 112.655Z" fill="black" stroke="black" stroke-width="5" stroke-linecap="round" stroke-linejoin="round"/>
<path d="M94.2268 112.655C95.4023 112.655 96.3552 111.695 96.3552 110.51C96.3552 109.326 95.4023 108.366 94.2268 108.366C93.0513 108.366 92.0984 109.326 92.0984 110.51C92.0984 111.695 93.0513 112.655 94.2268 112.655Z" fill="black" stroke="black" stroke-width="5" stroke-linecap="round" stroke-linejoin="round"/>
<path d="M118.525 128.033H125.998C127.42 132.517 128.85 137.002 130.271 141.486C132.229 142.38 134.187 143.281 136.145 144.175L149.232 137.985L154.041 142.826C152.083 147.311 150.126 151.795 148.168 156.279C148.883 157.896 149.589 159.504 150.304 161.121C154.756 162.916 159.208 164.711 163.66 166.499V173.493C159.208 175.11 154.756 176.718 150.304 178.335C149.411 180.13 148.525 181.925 147.632 183.713L154.041 196.629C152.262 198.425 150.483 200.22 148.704 202.007L135.885 195.549L130.548 198.238C128.947 202.722 127.347 207.206 125.738 211.691H118.793C117.192 207.028 115.592 202.365 113.983 197.702C112.204 196.987 110.425 196.264 108.646 195.549L95.8271 202.007C94.048 200.212 92.2689 198.416 90.4899 196.629L96.8994 183.713C96.0058 181.739 95.1204 179.765 94.2267 177.791C89.775 176.353 85.3232 174.923 80.8715 173.485V165.954C85.3232 164.516 89.775 163.087 94.2267 161.649C95.1204 159.675 96.0058 157.701 96.8994 155.727C94.7629 151.6 92.6264 147.473 90.4899 143.354C92.2689 141.559 94.048 139.764 95.8271 137.976C100.1 139.951 104.373 141.925 108.646 143.899C110.425 143.184 112.204 142.461 113.983 141.746C115.494 137.172 117.014 132.599 118.525 128.025V128.033Z" stroke="black" stroke-width="5" stroke-linecap="round" stroke-linejoin="round"/>
<path d="M122.521 153.054C131.027 153.168 138.533 159.983 139.078 168.66C139.662 178.026 131.912 186.264 122.521 186.418C113.464 186.564 105.429 179.139 105.429 169.74C105.429 160.284 113.553 152.94 122.521 153.062V153.054Z" stroke="black" stroke-width="5" stroke-linecap="round" stroke-linejoin="round"/>
</svg>
