<svg width="244" height="315" viewBox="0 0 244 315" fill="none" xmlns="http://www.w3.org/2000/svg">
<path d="M38.5 4.72C94.67 4.89 150.83 5.05 207 5.22C207.71 8.93 209.85 17.42 217 25.22C225.57 34.56 235.94 37.04 239.5 37.72V223.72C229.74 235.86 217.25 249.39 201.5 262.72C173.12 286.75 144.86 301.09 123.5 309.72C101.49 301.66 69.6 286.63 39 258.22C24.57 244.82 13.46 231.27 5 219.22C6.17 158.39 7.33 97.55 8.5 36.72C12.03 36.02 19.56 34.02 26.5 27.72C36.12 18.99 38.05 7.97 38.5 4.72Z" fill="#603813" stroke="black" stroke-width="9" stroke-miterlimit="10"/>
<path d="M49.29 21.01C98.39 21.16 147.49 21.31 196.59 21.45C197.21 24.75 199.08 32.29 205.33 39.22C212.82 47.52 221.88 49.72 225 50.33V215.6C216.47 226.39 205.55 238.41 191.78 250.25C166.97 271.6 142.27 284.34 123.59 292.01C104.35 284.85 76.47 271.49 49.72 246.25C37.11 234.35 27.39 222.3 20 211.6C21.02 157.55 22.04 103.5 23.06 49.44C26.15 48.82 32.73 47.04 38.8 41.44C47.21 33.69 48.9 23.9 49.29 21V21.01Z" fill="#577399" stroke="black" stroke-width="5" stroke-linecap="round" stroke-linejoin="round"/>
<path d="M51.6819 120.496C61.0647 102.25 110.855 105.02 145.063 124.265C173.317 140.155 201.352 173.137 193.172 190.294C184.357 208.775 133.845 208.182 98.8478 188.409C69.757 171.975 42.9327 137.515 51.6819 120.496V120.496Z" stroke="black" stroke-width="5" stroke-miterlimit="10"/>
<path d="M123.373 79C142.756 79.2518 160.076 119.537 161.099 152.576C162.253 189.701 143.333 233.431 123.373 233.699C103.673 233.967 83.486 191.894 83.7541 155.411C84.0141 119.968 103.649 78.7482 123.373 79.0081V79Z" stroke="black" stroke-width="5" stroke-miterlimit="10"/>
<path d="M191.287 121.446C199.792 138.701 170.165 174.071 138.467 190.302C107.987 205.908 63.0306 210.254 53.5747 193.129C44.4112 176.541 69.8057 142.023 97.9054 125.215C132.244 104.679 182.456 103.517 191.287 121.446V121.446Z" stroke="black" stroke-width="5" stroke-miterlimit="10"/>
<path d="M64.4197 116.726C67.8071 116.726 70.5531 113.98 70.5531 110.593C70.5531 107.206 67.8071 104.46 64.4197 104.46C61.0324 104.46 58.2864 107.206 58.2864 110.593C58.2864 113.98 61.0324 116.726 64.4197 116.726Z" fill="black" stroke="black" stroke-width="2" stroke-miterlimit="10"/>
<path d="M176.664 116.726C180.052 116.726 182.798 113.98 182.798 110.593C182.798 107.206 180.052 104.46 176.664 104.46C173.277 104.46 170.531 107.206 170.531 110.593C170.531 113.98 173.277 116.726 176.664 116.726Z" fill="black" stroke="black" stroke-width="2" stroke-miterlimit="10"/>
<path d="M176.664 208.223C180.052 208.223 182.798 205.477 182.798 202.09C182.798 198.702 180.052 195.956 176.664 195.956C173.277 195.956 170.531 198.702 170.531 202.09C170.531 205.477 173.277 208.223 176.664 208.223Z" fill="black" stroke="black" stroke-width="2" stroke-miterlimit="10"/>
<path d="M64.4197 208.223C67.8071 208.223 70.5531 205.477 70.5531 202.09C70.5531 198.702 67.8071 195.956 64.4197 195.956C61.0324 195.956 58.2864 198.702 58.2864 202.09C58.2864 205.477 61.0324 208.223 64.4197 208.223Z" fill="black" stroke="black" stroke-width="2" stroke-miterlimit="10"/>
<path d="M104.502 141.252C104.502 137.978 113.942 134.753 121.943 134.647C130.441 134.533 140.352 137.905 140.352 141.252C140.352 144.599 130.441 147.97 121.943 147.856C113.95 147.75 104.502 144.525 104.502 141.252Z" fill="black"/>
<path d="M104.502 147.856C107.329 149.456 113.73 152.576 122.423 152.576C125.672 152.576 132.772 152.137 140.343 147.856V158.23C137.858 159.895 131.456 163.689 122.423 163.892C113.543 164.087 107.077 160.708 104.502 159.172V147.856Z" fill="black"/>
<path d="M104.502 163.892C107.329 165.493 113.73 168.612 122.423 168.612C125.672 168.612 132.772 168.173 140.343 163.892V174.266C137.858 175.931 131.456 179.725 122.423 179.928C113.543 180.123 107.077 176.744 104.502 175.208V163.892Z" fill="black"/>
</svg>
