<svg width="244" height="315" viewBox="0 0 244 315" fill="none" xmlns="http://www.w3.org/2000/svg">
<path d="M38.5 5C94.67 5.17 150.83 5.33 207 5.5C207.71 9.21 209.85 17.7 217 25.5C225.57 34.84 235.94 37.32 239.5 38V224C229.74 236.14 217.25 249.67 201.5 263C173.12 287.03 144.86 301.37 123.5 310C101.49 301.94 69.6 286.91 39 258.5C24.57 245.1 13.46 231.55 5 219.5C6.17 158.67 7.33 97.83 8.5 37C12.03 36.3 19.56 34.3 26.5 28C36.12 19.27 38.05 8.25 38.5 5Z" fill="#603813" stroke="black" stroke-width="9" stroke-miterlimit="10"/>
<path d="M49.29 22.01C98.39 22.16 147.49 22.31 196.59 22.45C197.21 25.75 199.08 33.29 205.33 40.22C212.82 48.52 221.88 50.72 225 51.33V216.6C216.47 227.39 205.55 239.41 191.78 251.25C166.97 272.6 142.27 285.34 123.59 293.01C104.35 285.85 76.47 272.49 49.72 247.25C37.11 235.35 27.39 223.3 20 212.6C21.02 158.55 22.04 104.5 23.06 50.44C26.15 49.82 32.73 48.04 38.8 42.44C47.21 34.69 48.9 24.9 49.29 22V22.01Z" fill="#BF3100" stroke="black" stroke-width="5" stroke-linecap="round" stroke-linejoin="round"/>
<path d="M182.604 98H61.9029C56.4337 98 52.0001 102.434 52.0001 107.903V206.605C52.0001 212.074 56.4337 216.508 61.9029 216.508H182.604C188.073 216.508 192.507 212.074 192.507 206.605V107.903C192.507 102.434 188.073 98 182.604 98Z" stroke="black" stroke-width="5" stroke-miterlimit="10"/>
<path d="M52.0001 121.412H192.507" stroke="black" stroke-width="5" stroke-miterlimit="10"/>
<path d="M94.2187 148.74C87.1187 155.597 80.0267 162.461 72.9266 169.318L92.4478 188.839" stroke="black" stroke-width="5" stroke-linecap="round" stroke-linejoin="round"/>
<path d="M150.995 188.839C158.095 181.982 165.187 175.118 172.287 168.261L152.766 148.74" stroke="black" stroke-width="5" stroke-linecap="round" stroke-linejoin="round"/>
<path d="M108.411 195.573L138.216 143.062" stroke="black" stroke-width="5" stroke-linecap="round" stroke-linejoin="round"/>
<path d="M68.678 111.835C69.8534 111.835 70.8063 110.882 70.8063 109.706C70.8063 108.531 69.8534 107.578 68.678 107.578C67.5025 107.578 66.5496 108.531 66.5496 109.706C66.5496 110.882 67.5025 111.835 68.678 111.835Z" fill="black" stroke="black" stroke-width="5" stroke-linecap="round" stroke-linejoin="round"/>
<path d="M80.7416 111.835C81.917 111.835 82.8699 110.882 82.8699 109.706C82.8699 108.531 81.917 107.578 80.7416 107.578C79.5661 107.578 78.6132 108.531 78.6132 109.706C78.6132 110.882 79.5661 111.835 80.7416 111.835Z" fill="black" stroke="black" stroke-width="5" stroke-linecap="round" stroke-linejoin="round"/>
<path d="M92.8053 111.835C93.9808 111.835 94.9337 110.882 94.9337 109.706C94.9337 108.531 93.9808 107.578 92.8053 107.578C91.6298 107.578 90.6769 108.531 90.6769 109.706C90.6769 110.882 91.6298 111.835 92.8053 111.835Z" fill="black" stroke="black" stroke-width="5" stroke-linecap="round" stroke-linejoin="round"/>
</svg>
