<svg width="244" height="315" viewBox="0 0 244 315" fill="none" xmlns="http://www.w3.org/2000/svg">
<path d="M38.5 5C94.67 5.17 150.83 5.33 207 5.5C207.71 9.21 209.85 17.7 217 25.5C225.57 34.84 235.94 37.32 239.5 38V224C229.74 236.14 217.25 249.67 201.5 263C173.12 287.03 144.86 301.37 123.5 310C101.49 301.94 69.6 286.91 39 258.5C24.57 245.1 13.46 231.55 5 219.5C6.17 158.67 7.33 97.83 8.5 37C12.03 36.3 19.56 34.3 26.5 28C36.12 19.27 38.05 8.25 38.5 5Z" fill="#603813" stroke="black" stroke-width="9" stroke-miterlimit="10"/>
<path d="M48.29 22.01C97.39 22.16 146.49 22.31 195.59 22.45C196.21 25.75 198.08 33.29 204.33 40.22C211.82 48.52 220.88 50.72 224 51.33V216.6C215.47 227.39 204.55 239.41 190.78 251.25C165.97 272.6 141.27 285.34 122.59 293.01C103.35 285.85 75.47 272.49 48.72 247.25C36.11 235.35 26.39 223.3 19 212.6C20.02 158.55 21.04 104.5 22.06 50.44C25.15 49.82 31.73 48.04 37.8 42.44C46.21 34.69 47.9 24.9 48.29 22V22.01Z" fill="#6A9758" stroke="black" stroke-width="5" stroke-linecap="round" stroke-linejoin="round"/>
<path d="M95.0121 182.911C92.2988 187.42 87.2702 194.382 78.7648 199.971C74.378 202.855 62.0544 210.946 54.3938 206.47C50.1451 203.984 49.2678 198.322 47.8949 190.223C46.5301 182.148 47.0094 175.592 47.4887 171.132C48.7722 159.117 49.8121 149.426 54.8 138.637C58.415 130.831 67.8222 110.465 84.4513 107.361C98.8546 104.672 102.892 117.873 121.82 117.922C140.838 117.971 144.826 104.664 159.189 107.361C177.548 110.806 187.484 135.64 189.653 141.074C192.025 147.005 193.398 155.323 196.152 171.944C197.045 177.338 197.638 181.725 196.964 187.379C196.623 190.198 195.128 202.749 189.246 206.47C181.561 211.336 164.055 202.579 147.816 182.911H95.0121Z" stroke="black" stroke-width="5" stroke-linecap="round" stroke-linejoin="bevel"/>
<path d="M157.97 139.856C156.744 139.856 155.485 139.295 154.599 138.353C153.827 137.533 153.437 136.517 153.494 135.51C153.632 133.243 155.923 131.724 157.962 131.724C160.001 131.724 162.292 133.243 162.43 135.51C162.495 136.517 162.105 137.524 161.325 138.353C160.44 139.295 159.181 139.856 157.954 139.856H157.97Z" fill="black"/>
<path d="M157.97 133.763C159.165 133.763 160.351 134.673 160.416 135.64C160.456 136.233 160.083 136.72 159.863 136.964C159.368 137.492 158.645 137.825 157.97 137.825C157.296 137.825 156.581 137.492 156.078 136.964C155.85 136.728 155.485 136.241 155.525 135.64C155.582 134.673 156.776 133.763 157.97 133.763ZM157.97 129.701C154.802 129.701 151.675 132.106 151.471 135.388C151.252 138.905 154.469 141.887 157.97 141.887C161.472 141.887 164.689 138.905 164.469 135.388C164.266 132.106 161.139 129.701 157.97 129.701Z" fill="black"/>
<path d="M144.972 152.854C143.746 152.854 142.487 152.293 141.601 151.351C140.829 150.53 140.44 149.515 140.496 148.508C140.635 146.241 142.925 144.722 144.964 144.722C147.003 144.722 149.294 146.241 149.432 148.508C149.497 149.515 149.107 150.522 148.328 151.351C147.442 152.293 146.183 152.854 144.956 152.854H144.972Z" fill="black"/>
<path d="M144.972 146.761C146.167 146.761 147.353 147.671 147.418 148.638C147.458 149.231 147.085 149.718 146.865 149.962C146.37 150.49 145.647 150.823 144.972 150.823C144.298 150.823 143.583 150.49 143.08 149.962C142.852 149.726 142.487 149.239 142.527 148.638C142.584 147.671 143.778 146.761 144.972 146.761ZM144.972 142.699C141.804 142.699 138.677 145.104 138.474 148.386C138.254 151.903 141.471 154.885 144.972 154.885C148.474 154.885 151.691 151.903 151.471 148.386C151.268 145.104 148.141 142.699 144.972 142.699Z" fill="black"/>
<path d="M170.968 152.854C169.741 152.854 168.482 152.293 167.597 151.351C166.825 150.53 166.435 149.515 166.492 148.508C166.63 146.241 168.921 144.722 170.96 144.722C172.999 144.722 175.29 146.241 175.428 148.508C175.493 149.515 175.103 150.522 174.323 151.351C173.438 152.293 172.179 152.854 170.952 152.854H170.968Z" fill="black"/>
<path d="M170.968 146.761C172.162 146.761 173.348 147.671 173.413 148.638C173.454 149.231 173.08 149.718 172.861 149.962C172.365 150.49 171.642 150.823 170.968 150.823C170.294 150.823 169.579 150.49 169.075 149.962C168.848 149.726 168.482 149.239 168.523 148.638C168.58 147.671 169.774 146.761 170.968 146.761ZM170.968 142.699C167.8 142.699 164.672 145.104 164.469 148.386C164.25 151.903 167.467 154.885 170.968 154.885C174.469 154.885 177.686 151.903 177.467 148.386C177.264 145.104 174.136 142.699 170.968 142.699Z" fill="black"/>
<path d="M157.97 165.852C156.744 165.852 155.485 165.291 154.599 164.349C153.827 163.528 153.437 162.513 153.494 161.505C153.632 159.239 155.923 157.72 157.962 157.72C160.001 157.72 162.292 159.239 162.43 161.505C162.495 162.513 162.105 163.52 161.325 164.349C160.44 165.291 159.181 165.852 157.954 165.852H157.97Z" fill="black"/>
<path d="M157.97 159.759C159.165 159.759 160.351 160.669 160.416 161.635C160.456 162.228 160.083 162.716 159.863 162.96C159.368 163.488 158.645 163.821 157.97 163.821C157.296 163.821 156.581 163.488 156.078 162.96C155.85 162.724 155.485 162.237 155.525 161.635C155.582 160.669 156.776 159.759 157.97 159.759ZM157.97 155.697C154.802 155.697 151.675 158.102 151.471 161.384C151.252 164.901 154.469 167.883 157.97 167.883C161.472 167.883 164.689 164.901 164.469 161.384C164.266 158.102 161.139 155.697 157.97 155.697Z" fill="black"/>
<path d="M87.2946 132.951V164.633" stroke="black" stroke-width="13" stroke-miterlimit="10"/>
<path d="M71.8596 149.198H103.542" stroke="black" stroke-width="13" stroke-miterlimit="10"/>
</svg>
